PathFileType	3	(X/Y/Z)	squats_2__fused_aligned.trc
DataRate	CameraRate	NumFrames	NumMarkers	Units	OrigDataRate	OrigDataStartFrame	OrigNumFrames
100.0	100.0	18	19	mm	100.0	1476	1520
Frame#	Time	pelvis			neck			head			hip_left			hip_right			knee_left			knee_right			ankle_left			ankle_right			heel_left			heel_right			toe_left			toe_right			shoulder_left			shoulder_right			elbow_left			elbow_right			wrist_left			wrist_right			
		X1	Y1	Z1	X2	Y2	Z2	X3	Y3	Z3	X4	Y4	Z4	X5	Y5	Z5	X6	Y6	Z6	X7	Y7	Z7	X8	Y8	Z8	X9	Y9	Z9	X10	Y10	Z10	X11	Y11	Z11	X12	Y12	Z12	X13	Y13	Z13	X14	Y14	Z14	X15	Y15	Z15	X16	Y16	Z16	X17	Y17	Z17	X18	Y18	Z18	X19	Y19	Z19	
1476	14.75000	46.991613	586.022743	34.280489	37.352968	1072.373422	-229.271725	37.248160	1205.629303	-341.212873	-33.782679	584.840558	32.231444	127.765936	587.204923	36.329635	-139.233252	403.738837	-314.226373	248.433707	407.319870	-311.222618	-81.578156	172.742866	2.796681	211.356837	139.034305	-22.441406	-71.474353	147.909642	55.036022	202.387506	114.858593	30.895765	-117.209481	77.234941	-140.392256	234.987913	20.983317	-160.714435	-138.547259	1011.252168	-226.558660	208.116378	1047.736061	-193.496240	-83.008121	739.371612	-296.494480	287.650258	781.775507	-263.764508	115.594889	870.564670	-362.410015	165.946237	871.659804	-402.989758
1477	14.76000	46.637724	596.171877	35.055782	36.271215	1084.606864	-226.978206	35.720376	1218.355705	-338.595743	-34.150411	594.992103	33.185201	127.425888	597.351647	36.926454	-139.932360	406.434855	-308.709952	246.695367	411.072230	-307.382914	-83.279927	172.081336	5.828041	211.117956	139.998034	-20.809027	-73.180892	146.842442	57.847612	202.305743	115.476324	32.385838	-119.217823	77.118549	-137.928750	234.876369	22.440578	-159.823700	-139.788821	1023.065924	-224.060735	207.426381	1059.717423	-191.669259	-84.245381	751.229896	-294.678301	286.018730	793.883728	-262.984732	114.554142	882.593126	-360.258788	161.736281	884.062970	-399.882532
1478	14.77000	46.283836	606.321012	35.831074	35.189461	1096.840305	-224.684687	34.192593	1231.082106	-335.978612	-34.518143	605.143648	34.138957	127.085840	607.498371	37.523274	-140.631468	409.130872	-303.193531	244.957028	414.824589	-303.543210	-84.981697	171.419806	8.859401	210.879076	140.961763	-19.176649	-74.887431	145.775242	60.659201	202.223980	116.094055	33.875910	-121.226165	77.002157	-135.465244	234.764825	23.897839	-158.932965	-141.030382	1034.879679	-221.562810	206.736383	1071.698785	-189.842279	-85.482640	763.088181	-292.862122	284.387201	805.991949	-262.204955	113.513396	894.621582	-358.107562	157.526325	896.466136	-396.775307
1479	14.78000	45.929947	616.470146	36.606367	34.107707	1109.073747	-222.391168	32.664809	1243.808508	-333.361482	-34.885875	615.295193	35.092714	126.745792	617.645095	38.120093	-141.330576	411.826890	-297.677110	243.218688	418.576948	-299.703506	-86.683467	170.758276	11.890761	210.640196	141.925492	-17.544270	-76.593970	144.708043	63.470790	202.142216	116.711786	35.365982	-123.234507	76.885764	-133.001738	234.653281	25.355100	-158.042230	-142.271944	1046.693434	-219.064885	206.046385	1083.680147	-188.015298	-86.719900	774.946465	-291.045943	282.755673	818.100170	-261.425179	112.472649	906.650038	-355.956336	153.316368	908.869303	-393.668081
1480	14.79000	45.576059	626.619280	37.381660	33.025953	1121.307189	-220.097649	31.137025	1256.534909	-330.744351	-35.253607	625.446738	36.046470	126.405744	627.791819	38.716913	-142.029684	414.522907	-292.160689	241.480349	422.329308	-295.863802	-88.385238	170.096746	14.922121	210.401315	142.889221	-15.911891	-78.300509	143.640843	66.282379	202.060453	117.329517	36.856055	-125.242849	76.769372	-130.538233	234.541737	26.812361	-157.151494	-143.513506	1058.507190	-216.566960	205.356388	1095.661509	-186.188317	-87.957159	786.804749	-289.229763	281.124144	830.208390	-260.645402	111.431902	918.678494	-353.805110	149.106412	921.272469	-390.560855
1481	14.80000	45.222170	636.768414	38.156953	31.944200	1133.540631	-217.804130	29.609241	1269.261311	-328.127221	-35.621338	635.598283	37.000227	126.065696	637.938543	39.313732	-142.728792	417.218925	-286.644267	239.742009	426.081667	-292.024099	-90.087008	169.435216	17.953481	210.162435	143.852950	-14.279512	-80.007048	142.573643	69.093969	201.978690	117.947248	38.346127	-127.251191	76.652979	-128.074727	234.430193	28.269622	-156.260759	-144.755068	1070.320945	-214.069034	204.666390	1107.642871	-184.361336	-89.194419	798.663034	-287.413584	279.492616	842.316611	-259.865626	110.391155	930.706950	-351.653883	144.896456	933.675635	-387.453630
1482	14.81000	44.868281	646.917548	38.932246	30.862446	1145.774072	-215.510611	28.081458	1281.987712	-325.510090	-35.989070	645.749827	37.953983	125.725648	648.085267	39.910552	-143.427900	419.914942	-281.127846	238.003670	429.834027	-288.184395	-91.788779	168.773687	20.984840	209.923555	144.816679	-12.647133	-81.713587	141.506443	71.905558	201.896927	118.564979	39.836199	-129.259533	76.536587	-125.611221	234.318649	29.726883	-155.370024	-145.996630	1082.134700	-211.571109	203.976392	1119.624234	-182.534356	-90.431679	810.521318	-285.597405	277.861087	854.424832	-259.085850	109.350408	942.735406	-349.502657	140.686499	946.078801	-384.346404
1483	14.82000	44.514393	657.066682	39.707538	29.780692	1158.007514	-213.217092	26.553674	1294.714113	-322.892960	-36.356802	655.901372	38.907740	125.385600	658.231991	40.507371	-144.127008	422.610960	-275.611425	236.265330	433.586386	-284.344691	-93.490549	168.112157	24.016200	209.684674	145.780407	-11.014754	-83.420126	140.439243	74.717147	201.815164	119.182709	41.326272	-131.267875	76.420195	-123.147715	234.207105	31.184144	-154.479289	-147.238192	1093.948456	-209.073184	203.286395	1131.605596	-180.707375	-91.668938	822.379602	-283.781225	276.229559	866.533053	-258.306073	108.309662	954.763861	-347.351431	136.476543	958.481967	-381.239179
1484	14.83000	44.160504	667.215817	40.482831	28.698939	1170.240956	-210.923573	25.025890	1307.440515	-320.275829	-36.724534	666.052917	39.861496	125.045552	668.378716	41.104190	-144.826116	425.306977	-270.095004	234.526990	437.338746	-280.504987	-95.192320	167.450627	27.047560	209.445794	146.744136	-9.382375	-85.126665	139.372043	77.528736	201.733401	119.800440	42.816344	-133.276217	76.303802	-120.684210	234.095561	32.641405	-153.588554	-148.479754	1105.762211	-206.575259	202.596397	1143.586958	-178.880394	-92.906198	834.237887	-281.965046	274.598031	878.641274	-257.526297	107.268915	966.792317	-345.200205	132.266587	970.885133	-378.131953
1485	14.84000	43.806615	677.364951	41.258124	27.617185	1182.474398	-208.630054	23.498107	1320.166916	-317.658699	-37.092266	676.204462	40.815253	124.705504	678.525440	41.701010	-145.525224	428.002995	-264.578582	232.788651	441.091105	-276.665283	-96.894090	166.789097	30.078920	209.206913	147.707865	-7.749997	-86.833204	138.304843	80.340326	201.651637	120.418171	44.306417	-135.284560	76.187410	-118.220704	233.984017	34.098666	-152.697819	-149.721316	1117.575966	-204.077334	201.906399	1155.568320	-177.053413	-94.143457	846.096171	-280.148867	272.966502	890.749495	-256.746521	106.228168	978.820773	-343.048978	128.056630	983.288300	-375.024727
1486	14.85000	43.452727	687.514085	42.033417	26.535431	1194.707839	-206.336535	21.970323	1332.893318	-315.041568	-37.459997	686.356007	41.769009	124.365456	688.672164	42.297829	-146.224332	430.699012	-259.062161	231.050311	444.843464	-272.825579	-98.595860	166.127567	33.110280	208.968033	148.671594	-6.117618	-88.539743	137.237643	83.151915	201.569874	121.035902	45.796489	-137.292902	76.071017	-115.757198	233.872473	35.555927	-151.807084	-150.962878	1129.389722	-201.579408	201.216402	1167.549682	-175.226433	-95.380717	857.954455	-278.332688	271.334974	902.857715	-255.966744	105.187421	990.849229	-340.897752	123.846674	995.691466	-371.917502
1487	14.86000	43.312138	697.247981	42.970598	25.673323	1206.827292	-202.841304	20.699022	1345.459188	-311.276243	-37.559878	696.084039	42.910962	124.184156	698.411924	43.030229	-146.104250	433.898704	-251.587216	228.515885	448.638291	-267.221333	-99.958127	165.484370	36.615764	208.032422	149.986684	-3.613790	-89.966138	136.089082	86.339268	200.866369	122.021435	48.099957	-138.919017	76.228660	-113.027333	232.456731	37.436758	-150.008196	-152.011421	1141.418955	-197.883720	200.815155	1179.175528	-172.625929	-96.331536	870.277486	-276.199204	268.351579	914.456577	-254.872441	104.682917	1003.262479	-337.060417	118.114426	1007.709160	-367.589670
1488	14.87000	43.171549	706.981877	43.907779	24.811215	1218.946746	-199.346073	19.427720	1358.025058	-307.510919	-37.659759	705.812071	44.052914	124.002856	708.151685	43.762629	-145.984168	437.098396	-244.112270	225.981459	452.433117	-261.617086	-101.320394	164.841173	40.121248	207.096811	151.301773	-1.109963	-91.392532	134.940522	89.526621	200.162864	123.006969	50.403426	-140.545133	76.386303	-110.297469	231.040988	39.317588	-148.209308	-153.059963	1153.448188	-194.188031	200.413909	1190.801373	-170.025426	-97.282356	882.600517	-274.065720	265.368184	926.055438	-253.778138	104.178414	1015.675728	-333.223082	112.382177	1019.726854	-363.261838
1489	14.88000	43.030960	716.715773	44.844960	23.949107	1231.066199	-195.850842	18.156419	1370.590928	-303.745594	-37.759640	715.540103	45.194866	123.821555	717.891445	44.495028	-145.864086	440.298088	-236.637325	223.447032	456.227943	-256.012840	-102.682661	164.197976	43.626732	206.161200	152.616863	1.393865	-92.818927	133.791961	92.713974	199.459358	123.992502	52.706895	-142.171249	76.543946	-107.567604	229.625245	41.198418	-146.410421	-154.108506	1165.477422	-190.492342	200.012662	1202.427219	-167.424922	-98.233175	894.923547	-271.932236	262.384788	937.654299	-252.683835	103.673910	1028.088978	-329.385746	106.649929	1031.744548	-358.934005
1490	14.89000	42.890371	726.449669	45.782141	23.086999	1243.185652	-192.355611	16.885118	1383.156798	-299.980269	-37.859521	725.268135	46.336819	123.640255	727.631206	45.227428	-145.744004	443.497780	-229.162379	220.912606	460.022770	-250.408594	-104.044928	163.554779	47.132216	205.225588	153.931952	3.897693	-94.245322	132.643400	95.901327	198.755853	124.978035	55.010363	-143.797365	76.701589	-104.837739	228.209502	43.079249	-144.611533	-155.157049	1177.506655	-186.796653	199.611416	1214.053064	-164.824419	-99.183994	907.246578	-269.798752	259.401393	949.253161	-251.589531	103.169406	1040.502228	-325.548411	100.917681	1043.762243	-354.606173
1491	14.90000	42.749783	736.183565	46.719322	22.224891	1255.305105	-188.860380	15.613816	1395.722668	-296.214944	-37.959402	734.996167	47.478771	123.458955	737.370966	45.959828	-145.623922	446.697472	-221.687433	218.378180	463.817596	-244.804348	-105.407195	162.911581	50.637700	204.289977	155.247042	6.401520	-95.671716	131.494840	99.088680	198.052348	125.963568	57.313832	-145.423481	76.859232	-102.107875	226.793759	44.960079	-142.812646	-156.205591	1189.535888	-183.100965	199.210169	1225.678909	-162.223916	-100.134814	919.569609	-267.665268	256.417998	960.852022	-250.495228	102.664903	1052.915477	-321.711076	95.185432	1055.779937	-350.278341
1492	14.91000	42.609194	745.917460	47.656503	21.362783	1267.424558	-185.365149	14.342515	1408.288538	-292.449620	-38.059282	744.724199	48.620724	123.277655	747.110727	46.692227	-145.503840	449.897164	-214.212488	215.843753	467.612422	-239.200101	-106.769462	162.268384	54.143185	203.354366	156.562132	8.905348	-97.098111	130.346279	102.276033	197.348842	126.949102	59.617300	-147.049597	77.016875	-99.378010	225.378016	46.840910	-141.013758	-157.254134	1201.565122	-179.405276	198.808923	1237.304755	-159.623412	-101.085633	931.892639	-265.531784	253.434603	972.450883	-249.400925	102.160399	1065.328727	-317.873741	89.453184	1067.797631	-345.950509
1493	14.92000	42.468605	755.651356	48.593685	20.500675	1279.544011	-181.869918	13.071214	1420.854408	-288.684295	-38.159163	754.452231	49.762676	123.096355	756.850487	47.424627	-145.383758	453.096856	-206.737542	213.309327	471.407249	-233.595855	-108.131729	161.625187	57.648669	202.418755	157.877221	11.409175	-98.524506	129.197718	105.463386	196.645337	127.934635	61.920769	-148.675712	77.174518	-96.648145	223.962273	48.721740	-139.214871	-158.302676	1213.594355	-175.709587	198.407676	1248.930600	-157.022909	-102.036453	944.215670	-263.398301	250.451208	984.049744	-248.306622	101.655895	1077.741976	-314.036406	83.720936	1079.815325	-341.622677
